<svg width="48" height="48" viewBox="0 0 48 48" fill="none" xmlns="http://www.w3.org/2000/svg">
<path fill-rule="evenodd" clip-rule="evenodd" d="M23.9999 45C24.3978 45 24.7793 44.842 25.0606 44.5607C25.3419 44.2794 25.4999 43.8978 25.4999 43.5V8.121L34.9379 17.562C35.2196 17.8437 35.6016 18.0019 35.9999 18.0019C36.3983 18.0019 36.7803 17.8437 37.0619 17.562C37.3436 17.2803 37.5018 16.8983 37.5018 16.5C37.5018 16.1017 37.3436 15.7197 37.0619 15.438L25.0619 3.438C24.9226 3.29831 24.7571 3.18748 24.5748 3.11186C24.3926 3.03624 24.1972 2.99731 23.9999 2.99731C23.8026 2.99731 23.6073 3.03624 23.425 3.11186C23.2428 3.18748 23.0773 3.29831 22.9379 3.438L10.9379 15.438C10.7985 15.5775 10.6878 15.743 10.6124 15.9252C10.5369 16.1075 10.498 16.3028 10.498 16.5C10.498 16.8983 10.6563 17.2803 10.9379 17.562C11.2196 17.8437 11.6016 18.0019 11.9999 18.0019C12.3983 18.0019 12.7803 17.8437 13.0619 17.562L22.4999 8.121V43.5C22.4999 43.8978 22.658 44.2794 22.9393 44.5607C23.2206 44.842 23.6021 45 23.9999 45Z" fill="#2CB3FF"/>
</svg>
