<svg width="80" height="80" viewBox="0 0 80 80" fill="none" xmlns="http://www.w3.org/2000/svg">
<rect x="1" y="1" width="78" height="78" rx="39" stroke="url(#paint0_linear_1_128)" stroke-width="2"/>
<path d="M56.6078 37.9452L49.5766 44.0124L51.7187 53.0859C51.8369 53.5784 51.8065 54.095 51.6313 54.5702C51.4561 55.0455 51.1439 55.4582 50.7343 55.7561C50.3246 56.0541 49.8359 56.2239 49.3297 56.2442C48.8236 56.2645 48.3228 56.1344 47.8906 55.8702L40 51.014L32.1047 55.8702C31.6725 56.1329 31.1723 56.2618 30.6671 56.2407C30.1618 56.2197 29.6741 56.0496 29.2653 55.7519C28.8565 55.4542 28.545 55.0422 28.3698 54.5678C28.1947 54.0934 28.1639 53.5778 28.2812 53.0859L30.4312 44.0124L23.4 37.9452C23.0176 37.6148 22.7411 37.179 22.605 36.6923C22.4688 36.2057 22.479 35.6897 22.6344 35.2088C22.7897 34.7279 23.0833 34.3034 23.4785 33.9884C23.8736 33.6734 24.3528 33.4817 24.8562 33.4374L34.075 32.6937L37.6312 24.0874C37.8237 23.6184 38.1514 23.2172 38.5724 22.9348C38.9935 22.6525 39.4891 22.5017 39.9961 22.5017C40.5031 22.5017 40.9986 22.6525 41.4197 22.9348C41.8408 23.2172 42.1684 23.6184 42.3609 24.0874L45.9156 32.6937L55.1344 33.4374C55.6388 33.4801 56.1194 33.6707 56.516 33.9853C56.9126 34.2998 57.2075 34.7245 57.3638 35.206C57.5201 35.6874 57.5309 36.2043 57.3947 36.6919C57.2586 37.1794 56.9816 37.616 56.5984 37.9468L56.6078 37.9452Z" fill="url(#paint1_linear_1_128)"/>
<defs>
<linearGradient id="paint0_linear_1_128" x1="0" y1="0" x2="80" y2="80" gradientUnits="userSpaceOnUse">
<stop stop-color="#6CCAFF"/>
<stop offset="1" stop-color="#009AF1"/>
</linearGradient>
<linearGradient id="paint1_linear_1_128" x1="22.5099" y1="22.5017" x2="56.2327" y2="57.4588" gradientUnits="userSpaceOnUse">
<stop stop-color="#6CCAFF"/>
<stop offset="1" stop-color="#009AF1"/>
</linearGradient>
</defs>
</svg>
