<svg width="116" height="116" viewBox="0 0 116 116" fill="none" xmlns="http://www.w3.org/2000/svg">
<rect x="10" y="10" width="96" height="96" rx="48" fill="url(#paint0_linear_1_412)"/>
<rect x="5" y="5" width="106" height="106" rx="53" stroke="#2CB3FF" stroke-opacity="0.15" stroke-width="10"/>
<path d="M52.306 44.816C54.84 40.272 56.106 38 58 38C59.894 38 61.16 40.272 63.694 44.816L64.35 45.992C65.07 47.284 65.43 47.93 65.99 48.356C66.55 48.782 67.25 48.94 68.65 49.256L69.922 49.544C74.842 50.658 77.3 51.214 77.886 53.096C78.47 54.976 76.794 56.938 73.44 60.86L72.572 61.874C71.62 62.988 71.142 63.546 70.928 64.234C70.714 64.924 70.786 65.668 70.93 67.154L71.062 68.508C71.568 73.742 71.822 76.358 70.29 77.52C68.758 78.684 66.454 77.622 61.85 75.502L60.656 74.954C59.348 74.35 58.694 74.05 58 74.05C57.306 74.05 56.652 74.35 55.344 74.954L54.152 75.502C49.546 77.622 47.242 78.682 45.712 77.522C44.178 76.358 44.432 73.742 44.938 68.508L45.07 67.156C45.214 65.668 45.286 64.924 45.07 64.236C44.858 63.546 44.38 62.988 43.428 61.876L42.56 60.86C39.206 56.94 37.53 54.978 38.114 53.096C38.7 51.214 41.16 50.656 46.08 49.544L47.352 49.256C48.75 48.94 49.448 48.782 50.01 48.356C50.57 47.93 50.93 47.284 51.65 45.992L52.306 44.816Z" stroke="white" stroke-width="3"/>
<defs>
<linearGradient id="paint0_linear_1_412" x1="10" y1="10" x2="106" y2="106" gradientUnits="userSpaceOnUse">
<stop stop-color="#6CCAFF"/>
<stop offset="1" stop-color="#009AF1"/>
</linearGradient>
</defs>
</svg>
