<svg width="116" height="116" viewBox="0 0 116 116" fill="none" xmlns="http://www.w3.org/2000/svg">
<rect x="10" y="10" width="96" height="96" rx="48" fill="url(#paint0_linear_1_419)"/>
<rect x="5" y="5" width="106" height="106" rx="53" stroke="#2CB3FF" stroke-opacity="0.15" stroke-width="10"/>
<path d="M55.2399 64.6488C55.9288 65.3391 56.8132 65.6532 57.8932 65.591C58.9732 65.5287 59.7606 65.1406 60.2554 64.4265L71.9331 48.1555L55.5754 59.7466C54.8317 60.2414 54.4177 61.0103 54.3332 62.0532C54.2488 63.0962 54.5517 63.9628 55.2421 64.6532M57.9999 42C60.0428 42 61.9021 42.2489 63.5776 42.7467C65.2532 43.2444 66.9235 44.0044 68.5887 45.0267L66.5465 46.4111C65.2383 45.6955 63.8843 45.1518 62.4843 44.78C61.0843 44.4081 59.5895 44.2222 57.9999 44.2222C53.074 44.2222 48.8792 45.9541 45.4155 49.4177C41.9518 52.8814 40.2207 57.0755 40.2222 61.9999C40.2222 63.5554 40.4355 65.0925 40.8622 66.611C41.2889 68.1295 41.8903 69.5554 42.6666 70.8887H73.3331C74.1849 69.4813 74.8057 68.0184 75.1953 66.4998C75.5849 64.9813 75.779 63.4073 75.7775 61.7777C75.7775 60.4443 75.6057 59.0414 75.262 57.5688C74.9183 56.0962 74.3753 54.7244 73.6331 53.4533L75.0175 51.4088C76.099 53.2651 76.8642 55.0103 77.3131 56.6444C77.762 58.2784 77.9908 59.9806 77.9997 61.751C78.0086 63.6621 77.796 65.4458 77.362 67.1021C76.9279 68.7584 76.2538 70.428 75.3397 72.1109C75.162 72.4072 74.8916 72.648 74.5286 72.8331C74.1657 73.0183 73.7672 73.1109 73.3331 73.1109H42.6666C42.2592 73.1109 41.8815 73.0109 41.5333 72.8109C41.1866 72.6124 40.8948 72.322 40.6578 71.9398C39.923 70.6435 39.2963 69.1813 38.7778 67.5532C38.2593 65.925 38 64.0739 38 61.9999C38 59.268 38.5185 56.6895 39.5555 54.2644C40.5926 51.8392 42.0074 49.7155 43.8 47.8933C45.5925 46.0711 47.711 44.6326 50.1555 43.5778C52.5999 42.523 55.2147 41.997 57.9999 42Z" fill="white"/>
<defs>
<linearGradient id="paint0_linear_1_419" x1="10" y1="10" x2="106" y2="106" gradientUnits="userSpaceOnUse">
<stop stop-color="#6CCAFF"/>
<stop offset="1" stop-color="#009AF1"/>
</linearGradient>
</defs>
</svg>
