<svg width="80" height="80" viewBox="0 0 80 80" fill="none" xmlns="http://www.w3.org/2000/svg">
<rect x="1" y="1" width="78" height="78" rx="39" stroke="url(#paint0_linear_1_142)" stroke-width="2"/>
<path d="M49.6923 52.0769C49.6923 51.7019 49.5553 51.3774 49.2812 51.1034C49.0072 50.8293 48.6827 50.6923 48.3077 50.6923C47.9327 50.6923 47.6082 50.8293 47.3341 51.1034C47.0601 51.3774 46.9231 51.7019 46.9231 52.0769C46.9231 52.4519 47.0601 52.7764 47.3341 53.0505C47.6082 53.3245 47.9327 53.4615 48.3077 53.4615C48.6827 53.4615 49.0072 53.3245 49.2812 53.0505C49.5553 52.7764 49.6923 52.4519 49.6923 52.0769ZM55.2308 52.0769C55.2308 51.7019 55.0938 51.3774 54.8197 51.1034C54.5457 50.8293 54.2212 50.6923 53.8462 50.6923C53.4712 50.6923 53.1466 50.8293 52.8726 51.1034C52.5986 51.3774 52.4615 51.7019 52.4615 52.0769C52.4615 52.4519 52.5986 52.7764 52.8726 53.0505C53.1466 53.3245 53.4712 53.4615 53.8462 53.4615C54.2212 53.4615 54.5457 53.3245 54.8197 53.0505C55.0938 52.7764 55.2308 52.4519 55.2308 52.0769ZM58 47.2308V54.1538C58 54.7308 57.7981 55.2212 57.3942 55.625C56.9904 56.0288 56.5 56.2308 55.9231 56.2308H24.0769C23.5 56.2308 23.0096 56.0288 22.6058 55.625C22.2019 55.2212 22 54.7308 22 54.1538V47.2308C22 46.6538 22.2019 46.1635 22.6058 45.7596C23.0096 45.3558 23.5 45.1538 24.0769 45.1538H34.137L37.0577 48.0962C37.8942 48.9038 38.875 49.3077 40 49.3077C41.125 49.3077 42.1058 48.9038 42.9423 48.0962L45.8846 45.1538H55.9231C56.5 45.1538 56.9904 45.3558 57.3942 45.7596C57.7981 46.1635 58 46.6538 58 47.2308ZM50.9688 34.9207C51.2139 35.512 51.113 36.0168 50.6659 36.4351L40.9736 46.1274C40.7139 46.4014 40.3894 46.5385 40 46.5385C39.6106 46.5385 39.2861 46.4014 39.0264 46.1274L29.3341 36.4351C28.887 36.0168 28.7861 35.512 29.0312 34.9207C29.2764 34.3582 29.7019 34.0769 30.3077 34.0769H35.8462V24.3846C35.8462 24.0096 35.9832 23.6851 36.2572 23.4111C36.5312 23.137 36.8558 23 37.2308 23H42.7692C43.1442 23 43.4688 23.137 43.7428 23.4111C44.0168 23.6851 44.1538 24.0096 44.1538 24.3846V34.0769H49.6923C50.2981 34.0769 50.7236 34.3582 50.9688 34.9207Z" fill="url(#paint1_linear_1_142)"/>
<defs>
<linearGradient id="paint0_linear_1_142" x1="0" y1="0" x2="80" y2="80" gradientUnits="userSpaceOnUse">
<stop stop-color="#6CCAFF"/>
<stop offset="1" stop-color="#009AF1"/>
</linearGradient>
<linearGradient id="paint1_linear_1_142" x1="22" y1="23" x2="55.1246" y2="58.885" gradientUnits="userSpaceOnUse">
<stop stop-color="#6CCAFF"/>
<stop offset="1" stop-color="#009AF1"/>
</linearGradient>
</defs>
</svg>
