<svg width="116" height="116" viewBox="0 0 116 116" fill="none" xmlns="http://www.w3.org/2000/svg">
<rect x="10" y="10" width="96" height="96" rx="48" fill="url(#paint0_linear_1_283)"/>
<rect x="5" y="5" width="106" height="106" rx="53" stroke="#485768" stroke-opacity="0.1" stroke-width="10"/>
<g clip-path="url(#clip0_1_283)">
<path d="M75.3333 75.3333H40.6666C40.313 75.3333 39.9738 75.4738 39.7238 75.7238C39.4737 75.9739 39.3333 76.313 39.3333 76.6666C39.3333 77.0203 39.4737 77.3594 39.7238 77.6095C39.9738 77.8595 40.313 78 40.6666 78H75.3333C75.6869 78 76.026 77.8595 76.2761 77.6095C76.5261 77.3594 76.6666 77.0203 76.6666 76.6666C76.6666 76.313 76.5261 75.9739 76.2761 75.7238C76.026 75.4738 75.6869 75.3333 75.3333 75.3333Z" fill="white"/>
<path d="M58 73.3066L72.1467 59.16C72.3651 58.9049 72.4793 58.5768 72.4663 58.2412C72.4533 57.9057 72.3142 57.5874 72.0768 57.3499C71.8393 57.1124 71.521 56.9733 71.1854 56.9604C70.8499 56.9474 70.5218 57.0615 70.2667 57.28L59.3334 68.2V40.6666C59.3334 40.313 59.1929 39.9739 58.9428 39.7238C58.6928 39.4738 58.3536 39.3333 58 39.3333C57.6464 39.3333 57.3073 39.4738 57.0572 39.7238C56.8072 39.9739 56.6667 40.313 56.6667 40.6666V68.2L45.7467 57.28C45.6272 57.1404 45.4801 57.027 45.3147 56.947C45.1492 56.867 44.9691 56.822 44.7854 56.8149C44.6018 56.8078 44.4187 56.8388 44.2476 56.9058C44.0765 56.9728 43.9211 57.0745 43.7912 57.2044C43.6612 57.3344 43.5595 57.4898 43.4925 57.6609C43.4255 57.832 43.3945 58.0151 43.4016 58.1987C43.4087 58.3823 43.4537 58.5625 43.5337 58.7279C43.6138 58.8934 43.7271 59.0405 43.8667 59.16L58 73.3066Z" fill="white"/>
</g>
<defs>
<linearGradient id="paint0_linear_1_283" x1="10" y1="10" x2="106" y2="106" gradientUnits="userSpaceOnUse">
<stop stop-color="#637A94"/>
<stop offset="1" stop-color="#3A4552"/>
</linearGradient>
<clipPath id="clip0_1_283">
<rect width="48" height="48" fill="white" transform="translate(34 34)"/>
</clipPath>
</defs>
</svg>
