<svg width="117" height="116" viewBox="0 0 117 116" fill="none" xmlns="http://www.w3.org/2000/svg">
<rect x="10.3333" y="10" width="96" height="96" rx="48" fill="url(#paint0_linear_1_276)"/>
<rect x="5.33325" y="5" width="106" height="106" rx="53" stroke="#485768" stroke-opacity="0.1" stroke-width="10"/>
<path fill-rule="evenodd" clip-rule="evenodd" d="M43.2932 37.2H43.1332C42.4004 37.2 41.77 37.2 41.2132 37.3312C40.3512 37.5372 39.5631 37.9778 38.9362 38.6041C38.3092 39.2305 37.8679 40.0182 37.6612 40.88C37.5332 41.4368 37.5332 42.064 37.5332 42.8V50.8C37.5332 51.5328 37.5332 52.1632 37.6644 52.72C37.8704 53.582 38.311 54.3701 38.9373 54.997C39.5637 55.624 40.3514 56.0653 41.2132 56.272C41.77 56.4 42.3972 56.4 43.1332 56.4H51.1332C51.866 56.4 52.4964 56.4 53.0532 56.2688C53.9152 56.0628 54.7033 55.6223 55.3302 54.9959C55.9572 54.3695 56.3985 53.5818 56.6052 52.72C56.7332 52.1632 56.7332 51.536 56.7332 50.8V42.8C56.7332 42.0672 56.7332 41.4368 56.602 40.88C56.396 40.018 55.9555 39.2299 55.3291 38.603C54.7027 37.976 53.915 37.5348 53.0532 37.328C52.4964 37.2 51.8692 37.2 51.1332 37.2H50.9732H43.2932ZM41.9588 40.4448C42.0964 40.4128 42.3108 40.4 43.2932 40.4H50.9732C51.9588 40.4 52.17 40.4096 52.3076 40.4448C52.5951 40.5136 52.8579 40.6606 53.0668 40.8696C53.2758 41.0786 53.4229 41.3414 53.4916 41.6288C53.5236 41.7632 53.5332 41.9744 53.5332 42.96V50.64C53.5332 51.6256 53.5236 51.8368 53.4884 51.9744C53.4197 52.2619 53.2726 52.5247 53.0637 52.7337C52.8547 52.9427 52.5919 53.0897 52.3044 53.1584C52.1732 53.1872 51.962 53.2 50.9732 53.2H43.2932C42.3076 53.2 42.0964 53.1904 41.9588 53.1552C41.6713 53.0865 41.4086 52.9395 41.1996 52.7305C40.9906 52.5215 40.8435 52.2587 40.7748 51.9712C40.746 51.84 40.7332 51.6288 40.7332 50.64V42.96C40.7332 41.9744 40.7428 41.7632 40.778 41.6256C40.8467 41.3382 40.9938 41.0754 41.2028 40.8664C41.4117 40.6574 41.6745 40.5104 41.962 40.4416M65.6932 37.2H65.5332C64.8004 37.2 64.17 37.2 63.6132 37.3312C62.7512 37.5372 61.9631 37.9778 61.3362 38.6041C60.7092 39.2305 60.268 40.0182 60.0612 40.88C59.9332 41.4368 59.9332 42.064 59.9332 42.8V50.8C59.9332 51.5328 59.9332 52.1632 60.0644 52.72C60.2704 53.582 60.711 54.3701 61.3373 54.997C61.9637 55.624 62.7514 56.0653 63.6132 56.272C64.17 56.4 64.7972 56.4 65.5332 56.4H73.5332C74.266 56.4 74.8964 56.4 75.4532 56.2688C76.3152 56.0628 77.1033 55.6223 77.7302 54.9959C78.3572 54.3695 78.7985 53.5818 79.0052 52.72C79.1332 52.1632 79.1332 51.536 79.1332 50.8V42.8C79.1332 42.0672 79.1332 41.4368 79.002 40.88C78.796 40.018 78.3555 39.2299 77.7291 38.603C77.1027 37.976 76.315 37.5348 75.4532 37.328C74.8964 37.2 74.2692 37.2 73.5332 37.2H73.3732H65.6932ZM64.3588 40.4448C64.4964 40.4128 64.7108 40.4 65.6932 40.4H73.3732C74.3588 40.4 74.57 40.4096 74.7076 40.4448C74.9951 40.5136 75.2579 40.6606 75.4669 40.8696C75.6758 41.0786 75.8229 41.3414 75.8916 41.6288C75.9236 41.7632 75.9332 41.9744 75.9332 42.96V50.64C75.9332 51.6256 75.9204 51.8368 75.8884 51.9744C75.8197 52.2619 75.6726 52.5247 75.4637 52.7337C75.2547 52.9427 74.9919 53.0897 74.7044 53.1584C74.57 53.1904 74.3588 53.2 73.3732 53.2H65.6932C64.7076 53.2 64.4964 53.1904 64.3588 53.1552C64.0714 53.0865 63.8086 52.9395 63.5996 52.7305C63.3906 52.5215 63.2435 52.2587 63.1748 51.9712C63.146 51.84 63.1332 51.6288 63.1332 50.64V42.96C63.1332 41.9744 63.1428 41.7632 63.178 41.6256C63.2467 41.3382 63.3938 41.0754 63.6028 40.8664C63.8118 40.6574 64.0745 40.5104 64.362 40.4416M43.1332 59.6H51.1332C51.866 59.6 52.4964 59.6 53.0532 59.7312C53.9152 59.9372 54.7033 60.3778 55.3302 61.0041C55.9572 61.6305 56.3985 62.4182 56.6052 63.28C56.7332 63.8368 56.7332 64.464 56.7332 65.2V73.2C56.7332 73.9328 56.7332 74.5632 56.602 75.12C56.396 75.982 55.9555 76.7701 55.3291 77.397C54.7027 78.024 53.915 78.4653 53.0532 78.672C52.4964 78.8 51.8692 78.8 51.1332 78.8H43.1332C42.4004 78.8 41.77 78.8 41.2132 78.6688C40.3512 78.4628 39.5631 78.0223 38.9362 77.3959C38.3092 76.7695 37.8679 75.9818 37.6612 75.12C37.5332 74.5632 37.5332 73.936 37.5332 73.2V65.2C37.5332 64.4672 37.5332 63.8368 37.6644 63.28C37.8704 62.418 38.311 61.6299 38.9373 61.003C39.5637 60.376 40.3514 59.9348 41.2132 59.728C41.77 59.6 42.3972 59.6 43.1332 59.6ZM43.2932 62.8C42.3076 62.8 42.0964 62.8096 41.9588 62.8448C41.6713 62.9136 41.4086 63.0606 41.1996 63.2696C40.9906 63.4786 40.8435 63.7414 40.7748 64.0288C40.746 64.16 40.7332 64.3712 40.7332 65.36V73.04C40.7332 74.0256 40.7428 74.2368 40.778 74.3744C40.8467 74.6619 40.9938 74.9247 41.2028 75.1337C41.4117 75.3427 41.6745 75.4897 41.962 75.5584C42.0964 75.5904 42.3076 75.6 43.2932 75.6H50.9732C51.9588 75.6 52.17 75.5872 52.3076 75.5552C52.5951 75.4865 52.8579 75.3395 53.0668 75.1305C53.2758 74.9215 53.4229 74.6587 53.4916 74.3712C53.5236 74.2368 53.5332 74.0256 53.5332 73.04V65.36C53.5332 64.3744 53.5236 64.1632 53.4884 64.0256C53.4197 63.7382 53.2726 63.4754 53.0637 63.2664C52.8547 63.0574 52.5919 62.9104 52.3044 62.8416C52.1732 62.8128 51.962 62.8 50.9732 62.8H43.2932ZM65.6932 59.6H65.5332C64.8004 59.6 64.17 59.6 63.6132 59.7312C62.7512 59.9372 61.9631 60.3778 61.3362 61.0041C60.7092 61.6305 60.268 62.4182 60.0612 63.28C59.9332 63.8368 59.9332 64.464 59.9332 65.2V73.2C59.9332 73.9328 59.9332 74.5632 60.0644 75.12C60.2704 75.982 60.711 76.7701 61.3373 77.397C61.9637 78.024 62.7514 78.4653 63.6132 78.672C64.17 78.8032 64.8004 78.8032 65.5332 78.8032H73.5332C74.266 78.8032 74.8964 78.8032 75.4532 78.672C76.3146 78.4655 77.102 78.0247 77.7284 77.3984C78.3547 76.772 78.7955 75.9846 79.002 75.1232C79.1332 74.5664 79.1332 73.936 79.1332 73.2032V65.2C79.1332 64.4672 79.1332 63.8368 79.002 63.28C78.796 62.418 78.3555 61.6299 77.7291 61.003C77.1027 60.376 76.315 59.9348 75.4532 59.728C74.8964 59.6 74.2692 59.6 73.5332 59.6H73.3732H65.6932ZM64.3588 62.8448C64.4964 62.8128 64.7108 62.8 65.6932 62.8H73.3732C74.3588 62.8 74.57 62.8096 74.7076 62.8448C74.9951 62.9136 75.2579 63.0606 75.4669 63.2696C75.6758 63.4786 75.8229 63.7414 75.8916 64.0288C75.9236 64.1632 75.9332 64.3744 75.9332 65.36V73.04C75.9332 74.0256 75.9204 74.2368 75.8884 74.3744C75.8197 74.6619 75.6726 74.9247 75.4637 75.1337C75.2547 75.3427 74.9919 75.4897 74.7044 75.5584C74.57 75.5904 74.3588 75.6 73.3732 75.6H65.6932C64.7076 75.6 64.4964 75.5872 64.3588 75.5552C64.0714 75.4865 63.8086 75.3395 63.5996 75.1305C63.3906 74.9215 63.2435 74.6587 63.1748 74.3712C63.146 74.24 63.1332 74.0288 63.1332 73.04V65.36C63.1332 64.3744 63.1428 64.1632 63.178 64.0256C63.2467 63.7382 63.3938 63.4754 63.6028 63.2664C63.8118 63.0574 64.0745 62.9104 64.362 62.8416" fill="white"/>
<defs>
<linearGradient id="paint0_linear_1_276" x1="10.3333" y1="10" x2="106.333" y2="106" gradientUnits="userSpaceOnUse">
<stop stop-color="#637A94"/>
<stop offset="1" stop-color="#3A4552"/>
</linearGradient>
</defs>
</svg>
