<svg width="244" height="24" viewBox="0 0 244 24" fill="none" xmlns="http://www.w3.org/2000/svg">
<path d="M83.283 17.7288V6.30788C83.283 6.05714 83.3735 5.84615 83.5546 5.67491C83.7357 5.50367 83.9523 5.41806 84.2046 5.41806H89.6274C92.4342 5.41806 94.4746 5.95012 95.7487 7.01423C97.0292 8.07224 97.6695 9.73569 97.6695 12.0046C97.6695 14.2674 97.0292 15.9278 95.7487 16.9858C94.4746 18.0438 92.4342 18.5728 89.6274 18.5728H84.2046C83.9523 18.5728 83.7357 18.4933 83.5546 18.3343C83.3735 18.1691 83.283 17.9673 83.283 17.7288ZM86.9402 15.9767H89.5207C91.2604 15.9767 92.4439 15.677 93.0712 15.0777C93.6986 14.4784 94.0122 13.454 94.0122 12.0046C94.0122 10.5491 93.6986 9.52164 93.0712 8.92231C92.4439 8.31686 91.2604 8.01414 89.5207 8.01414H86.9402V15.9767Z" fill="#262626"/>
<path d="M111.897 17.2151C110.577 18.3098 108.637 18.8571 106.076 18.8571C103.521 18.8571 101.581 18.3098 100.255 17.2151C98.9296 16.1143 98.2667 14.3744 98.2667 11.9954C98.2667 9.61643 98.9296 7.87959 100.255 6.7849C101.581 5.6902 103.521 5.14285 106.076 5.14285C108.637 5.14285 110.577 5.6902 111.897 6.7849C113.222 7.87959 113.885 9.61643 113.885 11.9954C113.885 14.3744 113.222 16.1143 111.897 17.2151ZM109.248 8.72049C108.595 7.98662 107.538 7.61968 106.076 7.61968C104.621 7.61968 103.563 7.98662 102.904 8.72049C102.251 9.45437 101.924 10.5491 101.924 12.0046C101.924 13.454 102.251 14.5456 102.904 15.2795C103.563 16.0073 104.621 16.3711 106.076 16.3711C107.538 16.3711 108.595 16.0073 109.248 15.2795C109.901 14.5456 110.228 13.454 110.228 12.0046C110.228 10.5491 109.901 9.45437 109.248 8.72049Z" fill="#262626"/>
<path d="M113.852 6.18862C113.82 6.11524 113.803 6.03268 113.803 5.94094C113.803 5.84309 113.858 5.73301 113.968 5.6107C114.085 5.48227 114.256 5.41806 114.482 5.41806H116.607C116.859 5.41806 117.092 5.50062 117.305 5.66574C117.519 5.83086 117.671 6.03879 117.761 6.28953L120.322 13.5549L122.689 6.28953C122.877 5.70855 123.262 5.41806 123.844 5.41806H125.629C126.211 5.41806 126.596 5.70855 126.783 6.28953L129.15 13.5549L131.711 6.28953C131.802 6.03879 131.954 5.83086 132.167 5.66574C132.381 5.50062 132.614 5.41806 132.866 5.41806H134.99C135.21 5.41806 135.375 5.48227 135.485 5.6107C135.601 5.73301 135.66 5.84309 135.66 5.94094C135.66 6.03268 135.647 6.11524 135.621 6.18862L131.294 17.6371C131.055 18.2609 130.589 18.5728 129.897 18.5728H128.491C127.773 18.5728 127.31 18.2609 127.103 17.6371L124.736 10.5735L122.369 17.6371C122.156 18.2609 121.693 18.5728 120.982 18.5728H119.566C118.88 18.5728 118.418 18.2609 118.179 17.6371L113.852 6.18862Z" fill="#262626"/>
<path d="M136.655 17.7105V6.28953C136.655 6.05102 136.742 5.84615 136.917 5.67491C137.091 5.50367 137.305 5.41806 137.557 5.41806H140.409C140.635 5.41806 140.875 5.50367 141.127 5.67491C141.379 5.84615 141.586 6.05102 141.748 6.28953L147.607 14.8117V6.27119C147.607 6.03268 147.694 5.83086 147.869 5.66574C148.05 5.50062 148.267 5.41806 148.519 5.41806H150.187C150.44 5.41806 150.653 5.50062 150.828 5.66574C151.009 5.83086 151.099 6.03879 151.099 6.28953V17.7105C151.099 17.949 151.009 18.1538 150.828 18.3251C150.653 18.4902 150.44 18.5728 150.187 18.5728H146.967C146.714 18.5728 146.456 18.4902 146.191 18.3251C145.925 18.1538 145.715 17.949 145.56 17.7105L140.195 9.83965V17.7105C140.195 17.949 140.105 18.1538 139.924 18.3251C139.749 18.4902 139.536 18.5728 139.284 18.5728H137.576C137.324 18.5728 137.107 18.4902 136.926 18.3251C136.745 18.1538 136.655 17.949 136.655 17.7105Z" fill="#262626"/>
<path d="M153.287 17.7288V6.30788C153.287 6.05714 153.378 5.84615 153.559 5.67491C153.74 5.50367 153.957 5.41806 154.209 5.41806H156.033C156.285 5.41806 156.499 5.50367 156.673 5.67491C156.854 5.84615 156.945 6.05714 156.945 6.30788V15.9767H165.394C165.647 15.9767 165.86 16.0623 166.035 16.2335C166.216 16.4048 166.306 16.6096 166.306 16.8482V17.7105C166.306 17.949 166.216 18.1538 166.035 18.3251C165.86 18.4902 165.647 18.5728 165.394 18.5728H154.209C153.957 18.5728 153.74 18.4933 153.559 18.3343C153.378 18.1691 153.287 17.9673 153.287 17.7288Z" fill="#262626"/>
<path d="M179.844 17.2151C178.525 18.3098 176.585 18.8571 174.024 18.8571C171.469 18.8571 169.529 18.3098 168.203 17.2151C166.878 16.1143 166.215 14.3744 166.215 11.9954C166.215 9.61643 166.878 7.87959 168.203 6.7849C169.529 5.6902 171.469 5.14285 174.024 5.14285C176.585 5.14285 178.525 5.6902 179.844 6.7849C181.17 7.87959 181.833 9.61643 181.833 11.9954C181.833 14.3744 181.17 16.1143 179.844 17.2151ZM177.196 8.72049C176.543 7.98662 175.485 7.61968 174.024 7.61968C172.569 7.61968 171.511 7.98662 170.852 8.72049C170.198 9.45437 169.872 10.5491 169.872 12.0046C169.872 13.454 170.198 14.5456 170.852 15.2795C171.511 16.0073 172.569 16.3711 174.024 16.3711C175.485 16.3711 176.543 16.0073 177.196 15.2795C177.849 14.5456 178.176 13.454 178.176 12.0046C178.176 10.5491 177.849 9.45437 177.196 8.72049Z" fill="#262626"/>
<path d="M182.091 17.7288L184.526 8.9957C185.185 6.61672 187.333 5.42417 190.967 5.41806H196.196C196.435 5.41806 196.633 5.50367 196.788 5.67491C196.949 5.84615 197.03 6.04491 197.03 6.27119V17.7288C197.03 17.9673 196.94 18.1691 196.759 18.3343C196.578 18.4933 196.361 18.5728 196.109 18.5728H194.285C194.02 18.5728 193.8 18.4933 193.625 18.3343C193.457 18.1691 193.373 17.9612 193.373 17.7105V15.3988H186.476L185.826 17.7105C185.761 17.9612 185.616 18.1691 185.389 18.3343C185.163 18.4933 184.924 18.5728 184.671 18.5728H182.76C182.508 18.5728 182.327 18.5055 182.217 18.3709C182.107 18.2303 182.052 18.108 182.052 18.004C182.058 17.9 182.071 17.8083 182.091 17.7288ZM187.194 12.8027H193.373V8.01414H190.608C189.987 8.01414 189.444 8.18232 188.979 8.51868C188.519 8.84892 188.209 9.29536 188.047 9.858L187.194 12.8027Z" fill="#262626"/>
<path d="M199.209 17.7288V6.30788C199.209 6.05714 199.299 5.84615 199.48 5.67491C199.661 5.50367 199.878 5.41806 200.13 5.41806H205.553C208.36 5.41806 210.4 5.95012 211.674 7.01423C212.955 8.07224 213.595 9.73569 213.595 12.0046C213.595 14.2674 212.955 15.9278 211.674 16.9858C210.4 18.0438 208.36 18.5728 205.553 18.5728H200.13C199.878 18.5728 199.661 18.4933 199.48 18.3343C199.299 18.1691 199.209 17.9673 199.209 17.7288ZM202.866 15.9767H205.446C207.186 15.9767 208.37 15.677 208.997 15.0777C209.624 14.4784 209.938 13.454 209.938 12.0046C209.938 10.5491 209.624 9.52164 208.997 8.92231C208.37 8.31686 207.186 8.01414 205.446 8.01414H202.866V15.9767Z" fill="#262626"/>
<path d="M214.988 17.6921V6.27119C214.988 6.03268 215.079 5.83086 215.26 5.66574C215.441 5.50062 215.657 5.41806 215.91 5.41806H227.095C227.347 5.41806 227.56 5.50367 227.735 5.67491C227.916 5.84615 228.007 6.05102 228.007 6.28953V7.15184C228.007 7.39034 227.916 7.59522 227.735 7.76646C227.56 7.93158 227.347 8.01414 227.095 8.01414H218.645V10.6836H225.921C226.173 10.6836 226.387 10.7692 226.561 10.9405C226.742 11.1056 226.833 11.3074 226.833 11.5459V12.4082C226.833 12.6467 226.742 12.8516 226.561 13.0228C226.387 13.188 226.173 13.2705 225.921 13.2705H218.645V15.9767H227.075C227.321 15.9767 227.531 16.0592 227.706 16.2244C227.881 16.3895 227.968 16.5913 227.968 16.8298V17.7105C227.968 17.949 227.877 18.1538 227.696 18.3251C227.515 18.4902 227.298 18.5728 227.046 18.5728H215.91C215.657 18.5728 215.441 18.4902 215.26 18.3251C215.079 18.1538 214.988 17.9429 214.988 17.6921Z" fill="#262626"/>
<path d="M243.64 18.1783C243.64 18.4413 243.475 18.5728 243.146 18.5728H240.817C240.572 18.5728 240.3 18.4902 240.002 18.3251C239.711 18.1538 239.488 17.949 239.333 17.7105L237.684 15.2703C237.005 14.2674 236.184 13.7659 235.22 13.7659H232.853V17.7105C232.853 17.949 232.762 18.1538 232.581 18.3251C232.407 18.4902 232.193 18.5728 231.941 18.5728H230.117C229.865 18.5728 229.648 18.4902 229.467 18.3251C229.286 18.1538 229.196 17.949 229.196 17.7105V6.28953C229.196 6.05102 229.283 5.84615 229.458 5.67491C229.632 5.50367 229.846 5.41806 230.098 5.41806H238.101C239.582 5.41806 240.795 5.79417 241.739 6.54639C242.69 7.29861 243.165 8.3138 243.165 9.59197C243.165 11.3716 241.946 12.4877 239.508 12.9403C239.896 13.0748 240.255 13.3072 240.585 13.6375C240.914 13.9616 241.293 14.4355 241.72 15.0593L243.485 17.7105C243.589 17.8817 243.64 18.0376 243.64 18.1783ZM232.853 11.1698H236.985C237.652 11.1698 238.237 11.0444 238.741 10.7937C239.252 10.5429 239.508 10.1424 239.508 9.59197C239.508 9.04156 239.252 8.64099 238.741 8.39025C238.237 8.13951 237.652 8.01414 236.985 8.01414H232.853V11.1698Z" fill="#262626"/>
<path fill-rule="evenodd" clip-rule="evenodd" d="M0 10.9714C0 4.91208 5.19455 0 11.6024 0H74.6902C76.2921 0 77.5908 1.22802 77.5908 2.74286V13.0286C77.5908 19.0879 72.3962 24 65.9884 24H2.90059C1.29864 24 0 22.772 0 21.2571V10.9714ZM26.1275 8.87268L23.6074 17.9773C23.5874 18.0602 23.574 18.1558 23.5673 18.2642C23.5673 18.3726 23.6242 18.5001 23.738 18.6467C23.8518 18.787 24.0392 18.8571 24.3002 18.8571H26.2781C26.5391 18.8571 26.7868 18.7743 27.0211 18.6085C27.2553 18.4363 27.4059 18.2196 27.4729 17.9582L28.1455 15.5481H35.284V17.9582C35.284 18.2196 35.371 18.4363 35.545 18.6085C35.7258 18.7743 35.9533 18.8571 36.2278 18.8571H38.1153C38.3763 18.8571 38.6005 18.7743 38.788 18.6085C38.9754 18.4363 39.0691 18.2259 39.0691 17.9773V6.03228C39.0691 5.79637 38.9854 5.58916 38.8181 5.41064C38.6574 5.23212 38.4533 5.14286 38.2056 5.14286H32.7941C29.0324 5.14923 26.8102 6.39251 26.1275 8.87268ZM35.284 12.8416H28.8885L29.772 9.77167C29.9394 9.1851 30.2606 8.71967 30.7359 8.37537C31.2178 8.02471 31.78 7.84937 32.4226 7.84937H35.284V12.8416ZM41.3237 6.0514V17.9582C41.3237 18.2068 41.4174 18.4204 41.6048 18.5989C41.7922 18.7711 42.0164 18.8571 42.2775 18.8571H44.0445C44.3056 18.8571 44.5264 18.7711 44.7072 18.5989C44.8946 18.4204 44.9883 18.2068 44.9883 17.9582V9.75254L50.5404 17.9582C50.7011 18.2068 50.9186 18.4204 51.193 18.5989C51.4674 18.7711 51.7352 18.8571 51.9962 18.8571H55.3295C55.5905 18.8571 55.8114 18.7711 55.9921 18.5989C56.1796 18.4204 56.2733 18.2068 56.2733 17.9582V6.0514C56.2733 5.79 56.1796 5.57322 55.9921 5.40108C55.8114 5.22893 55.5905 5.14286 55.3295 5.14286H53.6026C53.3416 5.14286 53.1173 5.22893 52.9299 5.40108C52.7492 5.57322 52.6589 5.78362 52.6589 6.03228V14.936L46.5947 6.0514C46.4273 5.80275 46.2132 5.58916 45.9521 5.41064C45.6911 5.23212 45.4434 5.14286 45.2092 5.14286H42.2574C41.9964 5.14286 41.7755 5.23212 41.5948 5.41064C41.414 5.58916 41.3237 5.80275 41.3237 6.0514ZM57.303 5.60191C57.303 5.29588 57.477 5.14286 57.825 5.14286H59.7327C60.489 5.14286 61.0713 5.44571 61.4796 6.0514L64.7326 10.8237L67.9755 6.0514C68.3905 5.44571 68.9728 5.14286 69.7225 5.14286H71.6401C71.9815 5.14286 72.1522 5.29588 72.1522 5.60191C72.1522 5.74218 72.0986 5.89201 71.9915 6.0514L66.6201 13.9606V17.9773C66.6201 18.2259 66.5264 18.4363 66.339 18.6085C66.1583 18.7743 65.9374 18.8571 65.6763 18.8571H63.7888C63.5278 18.8571 63.3036 18.7743 63.1161 18.6085C62.9287 18.4363 62.835 18.2259 62.835 17.9773V13.9606L57.4736 6.0514C57.3599 5.89201 57.303 5.74218 57.303 5.60191ZM21.3918 18V15.1429C21.3918 14.9048 21.3024 14.7024 21.1234 14.5357C20.9444 14.369 20.7271 14.2857 20.4715 14.2857H16.023L14.7191 15.5C14.3484 15.8333 13.9138 16 13.4152 16C12.9167 16 12.4821 15.8333 12.1114 15.5L10.8171 14.2857H6.35898C6.10332 14.2857 5.88601 14.369 5.70705 14.5357C5.52809 14.7024 5.43861 14.9048 5.43861 15.1429V18C5.43861 18.2381 5.52809 18.4405 5.70705 18.6071C5.88601 18.7738 6.10332 18.8571 6.35898 18.8571H20.4715C20.7271 18.8571 20.9444 18.7738 21.1234 18.6071C21.3024 18.4405 21.3918 18.2381 21.3918 18ZM18.1418 10.6875C18.3399 10.5149 18.3846 10.3065 18.276 10.0625C18.1673 9.83036 17.9788 9.71429 17.7103 9.71429H15.256V5.71429C15.256 5.55952 15.1953 5.4256 15.0738 5.3125C14.9524 5.1994 14.8086 5.14286 14.6424 5.14286H12.1881C12.0219 5.14286 11.8781 5.1994 11.7566 5.3125C11.6352 5.4256 11.5745 5.55952 11.5745 5.71429V9.71429H9.12012C8.85168 9.71429 8.66313 9.83036 8.55447 10.0625C8.44582 10.3065 8.49056 10.5149 8.68869 10.6875L12.9838 14.6875C13.0988 14.8006 13.2427 14.8571 13.4152 14.8571C13.5878 14.8571 13.7316 14.8006 13.8467 14.6875L18.1418 10.6875Z" fill="#262626"/>
</svg>
