<svg width="160" height="160" viewBox="0 0 160 160" fill="none" xmlns="http://www.w3.org/2000/svg">
<g clip-path="url(#clip0_84_129)">
<rect width="160" height="160" rx="40" fill="white"/>
<g filter="url(#filter0_d_84_129)">
<path d="M105.24 112.596C105.24 111.62 104.884 110.774 104.17 110.061C103.456 109.347 102.611 108.99 101.635 108.99C100.658 108.99 99.8129 109.347 99.0993 110.061C98.3857 110.774 98.0288 111.62 98.0288 112.596C98.0288 113.573 98.3857 114.418 99.0993 115.131C99.8129 115.845 100.658 116.202 101.635 116.202C102.611 116.202 103.456 115.845 104.17 115.131C104.884 114.418 105.24 113.573 105.24 112.596ZM119.663 112.596C119.663 111.62 119.307 110.774 118.593 110.061C117.879 109.347 117.034 108.99 116.058 108.99C115.081 108.99 114.236 109.347 113.522 110.061C112.809 110.774 112.452 111.62 112.452 112.596C112.452 113.573 112.809 114.418 113.522 115.131C114.236 115.845 115.081 116.202 116.058 116.202C117.034 116.202 117.879 115.845 118.593 115.131C119.307 114.418 119.663 113.573 119.663 112.596ZM126.875 99.976V118.005C126.875 119.507 126.349 120.784 125.297 121.836C124.246 122.888 122.969 123.413 121.466 123.413H38.5337C37.0312 123.413 35.7542 122.888 34.7025 121.836C33.6508 120.784 33.125 119.507 33.125 118.005V99.976C33.125 98.4736 33.6508 97.1965 34.7025 96.1448C35.7542 95.0932 37.0312 94.5673 38.5337 94.5673H64.7318L72.3377 102.23C74.5162 104.333 77.0703 105.385 80 105.385C82.9297 105.385 85.4838 104.333 87.6623 102.23L95.3245 94.5673H121.466C122.969 94.5673 124.246 95.0932 125.297 96.1448C126.349 97.1965 126.875 98.4736 126.875 99.976ZM108.564 67.9184C109.203 69.4584 108.94 70.773 107.776 71.8622L82.5353 97.1026C81.8592 97.8163 81.0141 98.1731 80 98.1731C78.9859 98.1731 78.1408 97.8163 77.4647 97.1026L52.2243 71.8622C51.0599 70.773 50.797 69.4584 51.4355 67.9184C52.0741 66.4536 53.1821 65.7212 54.7596 65.7212H69.1827V40.4808C69.1827 39.5042 69.5395 38.6591 70.2532 37.9455C70.9668 37.2318 71.8119 36.875 72.7885 36.875H87.2115C88.1881 36.875 89.0332 37.2318 89.7468 37.9455C90.4605 38.6591 90.8173 39.5042 90.8173 40.4808V65.7212H105.24C106.818 65.7212 107.926 66.4536 108.564 67.9184Z" fill="url(#paint0_linear_84_129)"/>
</g>
</g>
<defs>
<filter id="filter0_d_84_129" x="18.125" y="36.875" width="123.75" height="116.538" filterUnits="userSpaceOnUse" color-interpolation-filters="sRGB">
<feFlood flood-opacity="0" result="BackgroundImageFix"/>
<feColorMatrix in="SourceAlpha" type="matrix" values="0 0 0 0 0 0 0 0 0 0 0 0 0 0 0 0 0 0 127 0" result="hardAlpha"/>
<feOffset dy="15"/>
<feGaussianBlur stdDeviation="7.5"/>
<feComposite in2="hardAlpha" operator="out"/>
<feColorMatrix type="matrix" values="0 0 0 0 0.0453459 0 0 0 0 0.239879 0 0 0 0 0.451433 0 0 0 0.3 0"/>
<feBlend mode="normal" in2="BackgroundImageFix" result="effect1_dropShadow_84_129"/>
<feBlend mode="normal" in="SourceGraphic" in2="effect1_dropShadow_84_129" result="shape"/>
</filter>
<linearGradient id="paint0_linear_84_129" x1="33.125" y1="36.875" x2="98.5066" y2="140.904" gradientUnits="userSpaceOnUse">
<stop stop-color="#8FDDF6"/>
<stop offset="1" stop-color="#2A7ADF"/>
</linearGradient>
<clipPath id="clip0_84_129">
<rect width="160" height="160" fill="white"/>
</clipPath>
</defs>
</svg>
