<svg width="244" height="25" viewBox="0 0 244 25" fill="none" xmlns="http://www.w3.org/2000/svg">
<path d="M83.2829 17.9165V6.49559C83.2829 6.24485 83.3734 6.03386 83.5545 5.86263C83.7356 5.69139 83.9523 5.60577 84.2045 5.60577H89.6273C92.4341 5.60577 94.4746 6.13783 95.7486 7.20195C97.0292 8.25995 97.6694 9.9234 97.6694 12.1923C97.6694 14.4551 97.0292 16.1155 95.7486 17.1735C94.4746 18.2315 92.4341 18.7605 89.6273 18.7605H84.2045C83.9523 18.7605 83.7356 18.681 83.5545 18.522C83.3734 18.3568 83.2829 18.155 83.2829 17.9165ZM86.9402 16.1644H89.5206C91.2603 16.1644 92.4438 15.8647 93.0712 15.2654C93.6985 14.6661 94.0122 13.6417 94.0122 12.1923C94.0122 10.7368 93.6985 9.70935 93.0712 9.11002C92.4438 8.50458 91.2603 8.20185 89.5206 8.20185H86.9402V16.1644Z" fill="white"/>
<path d="M111.896 17.4028C110.577 18.4975 108.637 19.0449 106.076 19.0449C103.521 19.0449 101.581 18.4975 100.255 17.4028C98.9295 16.302 98.2666 14.5621 98.2666 12.1831C98.2666 9.80415 98.9295 8.06731 100.255 6.97261C101.581 5.87791 103.521 5.33057 106.076 5.33057C108.637 5.33057 110.577 5.87791 111.896 6.97261C113.222 8.06731 113.885 9.80415 113.885 12.1831C113.885 14.5621 113.222 16.302 111.896 17.4028ZM109.248 8.90821C108.595 8.17433 107.538 7.80739 106.076 7.80739C104.621 7.80739 103.563 8.17433 102.904 8.90821C102.25 9.64208 101.924 10.7368 101.924 12.1923C101.924 13.6417 102.25 14.7333 102.904 15.4672C103.563 16.195 104.621 16.5589 106.076 16.5589C107.538 16.5589 108.595 16.195 109.248 15.4672C109.901 14.7333 110.228 13.6417 110.228 12.1923C110.228 10.7368 109.901 9.64208 109.248 8.90821Z" fill="white"/>
<path d="M113.852 6.37634C113.819 6.30295 113.803 6.22039 113.803 6.12866C113.803 6.03081 113.858 5.92072 113.968 5.79841C114.085 5.66998 114.256 5.60577 114.482 5.60577H116.607C116.859 5.60577 117.092 5.68833 117.305 5.85345C117.519 6.01857 117.671 6.22651 117.761 6.47725L120.322 13.7426L122.689 6.47725C122.877 5.89626 123.262 5.60577 123.844 5.60577H125.629C126.211 5.60577 126.596 5.89626 126.783 6.47725L129.15 13.7426L131.711 6.47725C131.802 6.22651 131.954 6.01857 132.167 5.85345C132.381 5.68833 132.613 5.60577 132.866 5.60577H134.99C135.21 5.60577 135.375 5.66998 135.485 5.79841C135.601 5.92072 135.66 6.03081 135.66 6.12866C135.66 6.22039 135.647 6.30295 135.621 6.37634L131.294 17.8248C131.055 18.4486 130.589 18.7605 129.897 18.7605H128.491C127.773 18.7605 127.31 18.4486 127.103 17.8248L124.736 10.7612L122.369 17.8248C122.156 18.4486 121.693 18.7605 120.982 18.7605H119.566C118.88 18.7605 118.418 18.4486 118.178 17.8248L113.852 6.37634Z" fill="white"/>
<path d="M136.655 17.8982V6.47725C136.655 6.23874 136.742 6.03386 136.916 5.86263C137.091 5.69139 137.304 5.60577 137.557 5.60577H140.409C140.635 5.60577 140.874 5.69139 141.127 5.86263C141.379 6.03386 141.586 6.23874 141.748 6.47725L147.607 14.9994V6.4589C147.607 6.22039 147.694 6.01857 147.869 5.85345C148.05 5.68833 148.267 5.60577 148.519 5.60577H150.187C150.44 5.60577 150.653 5.68833 150.828 5.85345C151.009 6.01857 151.099 6.22651 151.099 6.47725V17.8982C151.099 18.1367 151.009 18.3416 150.828 18.5128C150.653 18.6779 150.44 18.7605 150.187 18.7605H146.967C146.714 18.7605 146.456 18.6779 146.191 18.5128C145.925 18.3416 145.715 18.1367 145.56 17.8982L140.195 10.0274V17.8982C140.195 18.1367 140.105 18.3416 139.924 18.5128C139.749 18.6779 139.536 18.7605 139.283 18.7605H137.576C137.324 18.7605 137.107 18.6779 136.926 18.5128C136.745 18.3416 136.655 18.1367 136.655 17.8982Z" fill="white"/>
<path d="M153.287 17.9165V6.49559C153.287 6.24485 153.378 6.03386 153.559 5.86263C153.74 5.69139 153.957 5.60577 154.209 5.60577H156.033C156.285 5.60577 156.498 5.69139 156.673 5.86263C156.854 6.03386 156.945 6.24485 156.945 6.49559V16.1644H165.394C165.646 16.1644 165.86 16.25 166.034 16.4213C166.216 16.5925 166.306 16.7974 166.306 17.0359V17.8982C166.306 18.1367 166.216 18.3416 166.034 18.5128C165.86 18.6779 165.646 18.7605 165.394 18.7605H154.209C153.957 18.7605 153.74 18.681 153.559 18.522C153.378 18.3568 153.287 18.155 153.287 17.9165Z" fill="white"/>
<path d="M179.844 17.4028C178.525 18.4975 176.585 19.0449 174.024 19.0449C171.469 19.0449 169.529 18.4975 168.203 17.4028C166.877 16.302 166.215 14.5621 166.215 12.1831C166.215 9.80415 166.877 8.06731 168.203 6.97261C169.529 5.87791 171.469 5.33057 174.024 5.33057C176.585 5.33057 178.525 5.87791 179.844 6.97261C181.17 8.06731 181.833 9.80415 181.833 12.1831C181.833 14.5621 181.17 16.302 179.844 17.4028ZM177.196 8.90821C176.543 8.17433 175.485 7.80739 174.024 7.80739C172.569 7.80739 171.511 8.17433 170.852 8.90821C170.198 9.64208 169.872 10.7368 169.872 12.1923C169.872 13.6417 170.198 14.7333 170.852 15.4672C171.511 16.195 172.569 16.5589 174.024 16.5589C175.485 16.5589 176.543 16.195 177.196 15.4672C177.849 14.7333 178.176 13.6417 178.176 12.1923C178.176 10.7368 177.849 9.64208 177.196 8.90821Z" fill="white"/>
<path d="M182.091 17.9165L184.526 9.18341C185.185 6.80443 187.333 5.61189 190.967 5.60577H196.196C196.435 5.60577 196.632 5.69139 196.788 5.86263C196.949 6.03386 197.03 6.23262 197.03 6.4589V17.9165C197.03 18.155 196.94 18.3568 196.759 18.522C196.578 18.681 196.361 18.7605 196.109 18.7605H194.285C194.02 18.7605 193.8 18.681 193.625 18.522C193.457 18.3568 193.373 18.1489 193.373 17.8982V15.5865H186.476L185.826 17.8982C185.761 18.1489 185.615 18.3568 185.389 18.522C185.163 18.681 184.923 18.7605 184.671 18.7605H182.76C182.508 18.7605 182.327 18.6932 182.217 18.5587C182.107 18.418 182.052 18.2957 182.052 18.1917C182.058 18.0878 182.071 17.996 182.091 17.9165ZM187.193 12.9904H193.373V8.20185H190.608C189.987 8.20185 189.444 8.37003 188.978 8.70639C188.519 9.03663 188.209 9.48308 188.047 10.0457L187.193 12.9904Z" fill="white"/>
<path d="M199.209 17.9165V6.49559C199.209 6.24485 199.299 6.03386 199.48 5.86263C199.661 5.69139 199.878 5.60577 200.13 5.60577H205.553C208.36 5.60577 210.4 6.13783 211.674 7.20195C212.955 8.25995 213.595 9.9234 213.595 12.1923C213.595 14.4551 212.955 16.1155 211.674 17.1735C210.4 18.2315 208.36 18.7605 205.553 18.7605H200.13C199.878 18.7605 199.661 18.681 199.48 18.522C199.299 18.3568 199.209 18.155 199.209 17.9165ZM202.866 16.1644H205.446C207.186 16.1644 208.37 15.8647 208.997 15.2654C209.624 14.6661 209.938 13.6417 209.938 12.1923C209.938 10.7368 209.624 9.70935 208.997 9.11002C208.37 8.50458 207.186 8.20185 205.446 8.20185H202.866V16.1644Z" fill="white"/>
<path d="M214.988 17.8798V6.4589C214.988 6.22039 215.078 6.01857 215.26 5.85345C215.441 5.68833 215.657 5.60577 215.909 5.60577H227.095C227.347 5.60577 227.56 5.69139 227.735 5.86263C227.916 6.03386 228.007 6.23874 228.007 6.47725V7.33955C228.007 7.57806 227.916 7.78293 227.735 7.95417C227.56 8.11929 227.347 8.20185 227.095 8.20185H218.645V10.8713H225.921C226.173 10.8713 226.387 10.9569 226.561 11.1282C226.742 11.2933 226.833 11.4951 226.833 11.7336V12.5959C226.833 12.8344 226.742 13.0393 226.561 13.2105C226.387 13.3757 226.173 13.4582 225.921 13.4582H218.645V16.1644H227.075C227.321 16.1644 227.531 16.247 227.706 16.4121C227.88 16.5772 227.968 16.779 227.968 17.0175V17.8982C227.968 18.1367 227.877 18.3416 227.696 18.5128C227.515 18.6779 227.298 18.7605 227.046 18.7605H215.909C215.657 18.7605 215.441 18.6779 215.26 18.5128C215.078 18.3416 214.988 18.1306 214.988 17.8798Z" fill="white"/>
<path d="M243.64 18.366C243.64 18.629 243.475 18.7605 243.146 18.7605H240.817C240.572 18.7605 240.3 18.6779 240.002 18.5128C239.711 18.3416 239.488 18.1367 239.333 17.8982L237.684 15.458C237.005 14.4551 236.183 13.9536 235.22 13.9536H232.853V17.8982C232.853 18.1367 232.762 18.3416 232.581 18.5128C232.407 18.6779 232.193 18.7605 231.941 18.7605H230.117C229.865 18.7605 229.648 18.6779 229.467 18.5128C229.286 18.3416 229.196 18.1367 229.196 17.8982V6.47725C229.196 6.23874 229.283 6.03386 229.457 5.86263C229.632 5.69139 229.846 5.60577 230.098 5.60577H238.101C239.582 5.60577 240.795 5.98188 241.739 6.7341C242.69 7.48632 243.165 8.50152 243.165 9.77968C243.165 11.5593 241.946 12.6754 239.508 13.128C239.896 13.2625 240.255 13.4949 240.584 13.8252C240.914 14.1493 241.293 14.6233 241.72 15.2471L243.485 17.8982C243.589 18.0694 243.64 18.2254 243.64 18.366ZM232.853 11.3575H236.985C237.652 11.3575 238.237 11.2321 238.741 10.9814C239.252 10.7307 239.508 10.3301 239.508 9.77968C239.508 9.22928 239.252 8.8287 238.741 8.57796C238.237 8.32722 237.652 8.20185 236.985 8.20185H232.853V11.3575Z" fill="white"/>
<path fill-rule="evenodd" clip-rule="evenodd" d="M0 11.1589C0 5.09958 5.19455 0.1875 11.6024 0.1875H74.6902C76.2921 0.1875 77.5908 1.41552 77.5908 2.93036V13.2161C77.5908 19.2754 72.3962 24.1875 65.9884 24.1875H2.90059C1.29864 24.1875 0 22.9595 0 21.4446V11.1589ZM26.1275 9.06018L23.6074 18.1648C23.5874 18.2477 23.574 18.3433 23.5673 18.4517C23.5673 18.5601 23.6242 18.6876 23.738 18.8342C23.8518 18.9745 24.0392 19.0446 24.3002 19.0446H26.2781C26.5391 19.0446 26.7868 18.9618 27.0211 18.796C27.2553 18.6238 27.4059 18.4071 27.4729 18.1457L28.1455 15.7356H35.284V18.1457C35.284 18.4071 35.371 18.6238 35.545 18.796C35.7258 18.9618 35.9533 19.0446 36.2278 19.0446H38.1153C38.3763 19.0446 38.6005 18.9618 38.788 18.796C38.9754 18.6238 39.0691 18.4134 39.0691 18.1648V6.21978C39.0691 5.98387 38.9854 5.77666 38.8181 5.59814C38.6574 5.41962 38.4533 5.33036 38.2056 5.33036H32.7941C29.0324 5.33673 26.8102 6.58001 26.1275 9.06018ZM35.284 13.0291H28.8885L29.772 9.95917C29.9394 9.3726 30.2606 8.90717 30.7359 8.56287C31.2178 8.21221 31.78 8.03687 32.4226 8.03687H35.284V13.0291ZM41.3237 6.2389V18.1457C41.3237 18.3943 41.4174 18.6079 41.6048 18.7864C41.7922 18.9586 42.0164 19.0446 42.2775 19.0446H44.0445C44.3056 19.0446 44.5264 18.9586 44.7072 18.7864C44.8946 18.6079 44.9883 18.3943 44.9883 18.1457V9.94004L50.5404 18.1457C50.7011 18.3943 50.9186 18.6079 51.193 18.7864C51.4674 18.9586 51.7352 19.0446 51.9962 19.0446H55.3295C55.5905 19.0446 55.8114 18.9586 55.9921 18.7864C56.1796 18.6079 56.2733 18.3943 56.2733 18.1457V6.2389C56.2733 5.9775 56.1796 5.76072 55.9921 5.58858C55.8114 5.41643 55.5905 5.33036 55.3295 5.33036H53.6026C53.3416 5.33036 53.1173 5.41643 52.9299 5.58858C52.7492 5.76072 52.6589 5.97112 52.6589 6.21978V15.1235L46.5947 6.2389C46.4273 5.99025 46.2132 5.77666 45.9521 5.59814C45.6911 5.41962 45.4434 5.33036 45.2092 5.33036H42.2574C41.9964 5.33036 41.7755 5.41962 41.5948 5.59814C41.414 5.77666 41.3237 5.99025 41.3237 6.2389ZM57.303 5.78941C57.303 5.48338 57.477 5.33036 57.825 5.33036H59.7327C60.489 5.33036 61.0713 5.63321 61.4796 6.2389L64.7326 11.0112L67.9755 6.2389C68.3905 5.63321 68.9728 5.33036 69.7225 5.33036H71.6401C71.9815 5.33036 72.1522 5.48338 72.1522 5.78941C72.1522 5.92968 72.0986 6.07951 71.9915 6.2389L66.6201 14.1481V18.1648C66.6201 18.4134 66.5264 18.6238 66.339 18.796C66.1583 18.9618 65.9374 19.0446 65.6763 19.0446H63.7888C63.5278 19.0446 63.3036 18.9618 63.1161 18.796C62.9287 18.6238 62.835 18.4134 62.835 18.1648V14.1481L57.4736 6.2389C57.3599 6.07951 57.303 5.92968 57.303 5.78941ZM21.3918 18.1875V15.3304C21.3918 15.0923 21.3024 14.8899 21.1234 14.7232C20.9444 14.5565 20.7271 14.4732 20.4715 14.4732H16.023L14.7191 15.6875C14.3484 16.0208 13.9138 16.1875 13.4152 16.1875C12.9167 16.1875 12.4821 16.0208 12.1114 15.6875L10.8171 14.4732H6.35898C6.10332 14.4732 5.88601 14.5565 5.70705 14.7232C5.52809 14.8899 5.43861 15.0923 5.43861 15.3304V18.1875C5.43861 18.4256 5.52809 18.628 5.70705 18.7946C5.88601 18.9613 6.10332 19.0446 6.35898 19.0446H20.4715C20.7271 19.0446 20.9444 18.9613 21.1234 18.7946C21.3024 18.628 21.3918 18.4256 21.3918 18.1875ZM18.1418 10.875C18.3399 10.7024 18.3846 10.494 18.276 10.25C18.1673 10.0179 17.9788 9.90179 17.7103 9.90179H15.256V5.90179C15.256 5.74702 15.1953 5.6131 15.0738 5.5C14.9524 5.3869 14.8086 5.33036 14.6424 5.33036H12.1881C12.0219 5.33036 11.8781 5.3869 11.7566 5.5C11.6352 5.6131 11.5745 5.74702 11.5745 5.90179V9.90179H9.12012C8.85168 9.90179 8.66313 10.0179 8.55447 10.25C8.44582 10.494 8.49056 10.7024 8.68869 10.875L12.9838 14.875C13.0988 14.9881 13.2427 15.0446 13.4152 15.0446C13.5878 15.0446 13.7316 14.9881 13.8467 14.875L18.1418 10.875Z" fill="white"/>
</svg>
