<svg width="117" height="116" viewBox="0 0 117 116" fill="none" xmlns="http://www.w3.org/2000/svg">
<rect x="10.3333" y="10" width="96" height="96" rx="48" fill="url(#paint0_linear_1_99)"/>
<rect x="5.33333" y="5" width="106" height="106" rx="53" stroke="#2CB3FF" stroke-opacity="0.15" stroke-width="10"/>
<path d="M74.8333 41.875H47.8333C47.1371 41.875 46.4695 42.1516 45.9772 42.6438C45.4849 43.1361 45.2083 43.8038 45.2083 44.5V47.875H41.8333C41.1371 47.875 40.4695 48.1516 39.9772 48.6438C39.4849 49.1361 39.2083 49.8038 39.2083 50.5V71.5C39.2083 72.1962 39.4849 72.8639 39.9772 73.3562C40.4695 73.8484 41.1371 74.125 41.8333 74.125H68.8333C69.5295 74.125 70.1972 73.8484 70.6895 73.3562C71.1818 72.8639 71.4583 72.1962 71.4583 71.5V68.125H74.8333C75.5295 68.125 76.1972 67.8484 76.6895 67.3562C77.1818 66.8639 77.4583 66.1962 77.4583 65.5V44.5C77.4583 43.8038 77.1818 43.1361 76.6895 42.6438C76.1972 42.1516 75.5295 41.875 74.8333 41.875ZM41.8333 50.125H68.8333C68.9328 50.125 69.0282 50.1645 69.0985 50.2348C69.1688 50.3052 69.2083 50.4005 69.2083 50.5V53.875H41.4583V50.5C41.4583 50.4005 41.4978 50.3052 41.5682 50.2348C41.6385 50.1645 41.7339 50.125 41.8333 50.125ZM69.2083 71.5C69.2083 71.5995 69.1688 71.6948 69.0985 71.7652C69.0282 71.8355 68.9328 71.875 68.8333 71.875H41.8333C41.7339 71.875 41.6385 71.8355 41.5682 71.7652C41.4978 71.6948 41.4583 71.5995 41.4583 71.5V56.125H69.2083V71.5ZM75.2083 65.5C75.2083 65.5995 75.1688 65.6948 75.0985 65.7652C75.0282 65.8355 74.9328 65.875 74.8333 65.875H71.4583V50.5C71.4583 49.8038 71.1818 49.1361 70.6895 48.6438C70.1972 48.1516 69.5295 47.875 68.8333 47.875H47.4583V44.5C47.4583 44.4005 47.4978 44.3052 47.5682 44.2348C47.6385 44.1645 47.7339 44.125 47.8333 44.125H74.8333C74.9328 44.125 75.0282 44.1645 75.0985 44.2348C75.1688 44.3052 75.2083 44.4005 75.2083 44.5V65.5Z" fill="white"/>
<defs>
<linearGradient id="paint0_linear_1_99" x1="10.3333" y1="10" x2="106.333" y2="106" gradientUnits="userSpaceOnUse">
<stop stop-color="#6CCAFF"/>
<stop offset="1" stop-color="#009AF1"/>
</linearGradient>
</defs>
</svg>
