<svg width="116" height="116" viewBox="0 0 116 116" fill="none" xmlns="http://www.w3.org/2000/svg">
<rect x="10" y="10" width="96" height="96" rx="48" fill="url(#paint0_linear_1_106)"/>
<rect x="5" y="5" width="106" height="106" rx="53" stroke="#2CB3FF" stroke-opacity="0.15" stroke-width="10"/>
<path d="M59.9484 37.0129C58.6127 37.1047 57.3495 37.6541 56.3716 38.5684C55.3936 39.4827 54.7606 40.7062 54.5793 42.0327L54.5612 42.175H48.0614L47.6862 42.1931C46.7259 42.2864 45.8347 42.734 45.1865 43.4487C44.5383 44.1634 44.1795 45.094 44.1802 46.0588L44.175 51.9169L44.0275 51.9325C42.6333 52.1245 41.3559 52.815 40.4316 53.8763C39.5073 54.9376 38.9987 56.2978 39 57.7052L39.0129 58.1037C39.1047 59.4393 39.6541 60.7025 40.5684 61.6805C41.4827 62.6585 42.7062 63.2914 44.0327 63.4727L44.1776 63.4857V69.3489L44.1983 69.7215C44.2915 70.6814 44.7388 71.5723 45.4529 72.2204C46.1671 72.8686 47.097 73.2276 48.0614 73.2276H53.2726L53.2882 73.3699C53.4796 74.7641 54.1695 76.0418 55.2303 76.9666C56.2911 77.8914 57.651 78.4006 59.0583 78.4L59.4568 78.3871C60.7924 78.2953 62.0556 77.7459 63.0336 76.8316C64.0116 75.9173 64.6445 74.6938 64.8258 73.3673L64.8388 73.2276H71.3489C72.3783 73.2276 73.3655 72.8187 74.0934 72.0908C74.8213 71.3629 75.2302 70.3757 75.2302 69.3463L75.225 60.9344L70.6943 60.937L70.376 60.924C69.5759 60.8466 68.8335 60.4731 68.2945 59.8766C67.7555 59.2802 67.4588 58.5039 67.4625 57.7L67.4754 57.3817C67.5522 56.5816 67.9251 55.8389 68.5211 55.2994C69.117 54.76 69.893 54.4626 70.6969 54.4656L75.225 54.463L75.2302 46.0614L75.2121 45.6862C75.1194 44.7259 74.6724 43.8344 73.9582 43.1857C73.244 42.537 72.3138 42.1776 71.3489 42.1776H66.1299L66.117 42.0327C65.9262 40.638 65.2365 39.3597 64.1756 38.4344C63.1148 37.5091 61.7546 36.9995 60.3469 37L59.9484 37.0129ZM60.3469 39.5875C62.1322 39.5875 63.5812 41.0365 63.5812 42.8219V44.7625L71.3489 44.7677L71.5818 44.7884C71.8797 44.8429 72.149 45.0001 72.3428 45.2328C72.5367 45.4654 72.6428 45.7586 72.6427 46.0614L72.6375 51.8755L70.6943 51.8781C69.2324 51.8778 67.8239 52.4274 66.7486 53.4178C65.6734 54.4082 65.0101 55.7669 64.8905 57.2239L64.875 57.6482C64.875 60.7377 67.2089 63.258 70.2208 63.5038L70.6451 63.5219L72.6401 63.5167V69.3489C72.6401 69.6921 72.5038 70.0211 72.2612 70.2637C72.0185 70.5064 71.6895 70.6427 71.3463 70.6427L62.2875 70.6375L62.2927 72.5781C62.2923 73.4359 61.9512 74.2585 61.3444 74.8648C60.7376 75.4711 59.9148 75.8116 59.057 75.8112C58.1992 75.8109 57.3767 75.4698 56.7703 74.863C56.164 74.2562 55.8236 73.4333 55.8239 72.5755L55.8162 70.6375L48.0614 70.6427C47.7183 70.6427 47.3892 70.5064 47.1466 70.2637C46.904 70.0211 46.7677 69.6921 46.7677 69.3489L46.7625 60.9344L44.8167 60.9396C44.392 60.9394 43.9714 60.8556 43.5791 60.6929C43.1867 60.5302 42.8303 60.2918 42.53 59.9913C42.2298 59.6908 41.9917 59.3342 41.8293 58.9417C41.6669 58.5492 41.5835 58.1286 41.5836 57.7039C41.5838 57.2791 41.6676 56.8586 41.8303 56.4662C41.993 56.0739 42.2314 55.7174 42.5319 55.4172C43.1387 54.8109 43.9615 54.4705 44.8193 54.4708L46.7625 54.4656L46.7677 46.0614C46.7677 45.7183 46.904 45.3892 47.1466 45.1466C47.3892 44.904 47.7183 44.7677 48.0614 44.7677L57.1125 44.7625V42.8219C57.1125 41.0365 58.5615 39.5875 60.3469 39.5875Z" fill="white"/>
<defs>
<linearGradient id="paint0_linear_1_106" x1="10" y1="10" x2="106" y2="106" gradientUnits="userSpaceOnUse">
<stop stop-color="#6CCAFF"/>
<stop offset="1" stop-color="#009AF1"/>
</linearGradient>
</defs>
</svg>
