<svg width="117" height="116" viewBox="0 0 117 116" fill="none" xmlns="http://www.w3.org/2000/svg">
<rect x="10.6667" y="10" width="96" height="96" rx="48" fill="url(#paint0_linear_1_113)"/>
<rect x="5.66675" y="5" width="106" height="106" rx="53" stroke="#2CB3FF" stroke-opacity="0.15" stroke-width="10"/>
<g clip-path="url(#clip0_1_113)">
<path d="M76.0001 75.3334H41.3334C40.9798 75.3334 40.6406 75.4738 40.3906 75.7239C40.1405 75.9739 40.0001 76.3131 40.0001 76.6667C40.0001 77.0203 40.1405 77.3595 40.3906 77.6095C40.6406 77.8596 40.9798 78 41.3334 78H76.0001C76.3537 78 76.6928 77.8596 76.9429 77.6095C77.1929 77.3595 77.3334 77.0203 77.3334 76.6667C77.3334 76.3131 77.1929 75.9739 76.9429 75.7239C76.6928 75.4738 76.3537 75.3334 76.0001 75.3334Z" fill="white"/>
<path d="M58.6668 73.3067L72.8134 59.16C73.0319 58.905 73.146 58.5769 73.1331 58.2413C73.1201 57.9057 72.981 57.5874 72.7435 57.35C72.5061 57.1125 72.1877 56.9734 71.8522 56.9604C71.5166 56.9475 71.1885 57.0616 70.9334 57.28L60.0001 68.2V40.6667C60.0001 40.3131 59.8596 39.9739 59.6096 39.7239C59.3595 39.4739 59.0204 39.3334 58.6668 39.3334C58.3132 39.3334 57.974 39.4739 57.724 39.7239C57.4739 39.9739 57.3334 40.3131 57.3334 40.6667V68.2L46.4134 57.28C46.2939 57.1405 46.1468 57.0271 45.9814 56.9471C45.816 56.867 45.6358 56.8221 45.4522 56.815C45.2686 56.8079 45.0854 56.8388 44.9143 56.9059C44.7432 56.9729 44.5878 57.0746 44.4579 57.2045C44.328 57.3344 44.2263 57.4898 44.1593 57.6609C44.0922 57.832 44.0613 58.0152 44.0684 58.1988C44.0755 58.3824 44.1204 58.5626 44.2005 58.728C44.2805 58.8934 44.3939 59.0405 44.5334 59.16L58.6668 73.3067Z" fill="white"/>
</g>
<defs>
<linearGradient id="paint0_linear_1_113" x1="10.6667" y1="10" x2="106.667" y2="106" gradientUnits="userSpaceOnUse">
<stop stop-color="#6CCAFF"/>
<stop offset="1" stop-color="#009AF1"/>
</linearGradient>
<clipPath id="clip0_1_113">
<rect width="48" height="48" fill="white" transform="translate(34.6667 34)"/>
</clipPath>
</defs>
</svg>
